<svg xmlns="http://www.w3.org/2000/svg" viewBox="0 0 100 100">
  <defs><radialGradient id="g" cx="50%" cy="70%"><stop stop-color="#fff59a"/><stop offset=".5" stop-color="#ff9e3d"/><stop offset="1" stop-color="#ed3f42"/></radialGradient></defs>
  <path d="M50 10c8 17 4 25 0 34 12-5 18-14 18-25 20 20 27 42 14 59-15 20-49 18-62-3-12-20 0-42 17-55-1 13 3 21 8 25 3-13 8-21 5-35Z" fill="url(#g)" stroke="#ffd27a" stroke-width="5" stroke-linejoin="round"/>
  <path d="M51 52c10 10 13 19 7 27-5 7-17 7-23-1-6-9 1-18 10-26 0 7 2 10 6 13 2-5 2-9 0-13Z" fill="#fff7b1"/>
</svg>
