<svg xmlns="http://www.w3.org/2000/svg" viewBox="0 0 256 256">
  <defs>
    <radialGradient id="core" cx="50%" cy="48%" r="52%">
      <stop offset="0" stop-color="#fffbd2"/>
      <stop offset=".24" stop-color="#99e8ff"/>
      <stop offset=".55" stop-color="#8a5cff"/>
      <stop offset="1" stop-color="#29154e" stop-opacity=".15"/>
    </radialGradient>
    <linearGradient id="blade" x1="0" y1="0" x2="1" y2="1">
      <stop stop-color="#e6fbff"/>
      <stop offset=".5" stop-color="#76cfff"/>
      <stop offset="1" stop-color="#bd6fff"/>
    </linearGradient>
    <filter id="glow" x="-70%" y="-70%" width="240%" height="240%">
      <feGaussianBlur stdDeviation="8" result="blur"/>
      <feMerge><feMergeNode in="blur"/><feMergeNode in="SourceGraphic"/></feMerge>
    </filter>
  </defs>
  <circle cx="128" cy="128" r="86" fill="none" stroke="#7d58bd" stroke-width="5" opacity=".55"/>
  <circle cx="128" cy="128" r="66" fill="url(#core)" opacity=".9" filter="url(#glow)"/>
  <g fill="none" stroke="url(#blade)" stroke-linecap="round" stroke-linejoin="round" filter="url(#glow)">
    <path d="M128 18 145 88 214 59 168 113 238 128 168 143 214 197 145 168 128 238 111 168 42 197 88 143 18 128 88 113 42 59 111 88Z" stroke-width="7"/>
    <path d="m128 64 18 43 46 21-46 21-18 43-18-43-46-21 46-21Z" stroke-width="5"/>
  </g>
  <circle cx="128" cy="128" r="16" fill="#fff8c4" stroke="#ffffff" stroke-width="4" filter="url(#glow)"/>
</svg>
